<svg xmlns="http://www.w3.org/2000/svg" x="0px" y="0px" viewBox="0 0 864 864" enable-background="new 0 0 864 864"><style>.ls0{fill:#2563eb}</style><g class="ls0"><g><path d="M357,305.8v354.9l-104.9-44.4c-64.9-27.5-106.9-90.8-106.9-161.3V305.8v-63h-63v212.2c0,95.7,57.2,182.1,145.4,219.3 L357,729l63,26.6v-68.4V305.8v-63h-63V305.8z"/></g><g><path d="M507,242.8h-63v63v117.1v63v201.4v68.4l63-26.6v-68.4V485.8h114.5H657l13,13l31.7,31.7c-15.4,32.2-40.6,59.4-72.7,77.3 l45.8,45.8c43.1-28.4,75.5-70,92.8-118c2.6-7.1,4.8-14.3,6.6-21.6l-28.3-28.3l-27.3-27.3l-4.2-4.2l4.2-4.2l27.2-27.2l35.8-35.8 V242.8h-63H507z M507,305.8h211.8V361L670,409.8l-13.1,13h-35.5H507V305.8z"/></g></g></svg>